HIERARCHY
ROOT Hips
{
	OFFSET 0.000000 0.000000 0.000000
	CHANNELS 6 Xposition Yposition Zposition Yrotation Xrotation Zrotation
	JOINT Chest
	{
		OFFSET 0.000000 -0.009281 11.569106
		CHANNELS 3 Yrotation Xrotation Zrotation
		JOINT Chest2
		{
			OFFSET -0.000000 0.016865 9.269641
			CHANNELS 3 Yrotation Xrotation Zrotation
			JOINT Chest3
			{
				OFFSET -0.000000 0.000001 8.374491
				CHANNELS 3 Yrotation Xrotation Zrotation
				JOINT Chest4
				{
					OFFSET -0.000000 0.000001 8.374493
					CHANNELS 3 Yrotation Xrotation Zrotation
					JOINT Neck
					{
						OFFSET -0.000000 0.000002 12.152554
						CHANNELS 3 Yrotation Xrotation Zrotation
						JOINT Head
						{
							OFFSET -0.000000 0.040101 7.802319
							CHANNELS 3 Yrotation Xrotation Zrotation
							End Site
							{
								OFFSET -0.000000 0.020947 14.853096
							}
						}
					}
					JOINT RightCollar
					{
						OFFSET 2.894404 0.000001 6.791374
						CHANNELS 3 Yrotation Xrotation Zrotation
						JOINT RightShoulder
						{
							OFFSET 13.574684 0.000001 0.000000
							CHANNELS 3 Yrotation Xrotation Zrotation
							JOINT RightElbow
							{
								OFFSET 23.923903 0.000002 0.000000
								CHANNELS 3 Yrotation Xrotation Zrotation
								JOINT RightWrist
								{
									OFFSET 19.846718 0.012767 0.000000
									CHANNELS 3 Yrotation Xrotation Zrotation
									End Site
									{
										OFFSET 14.973145 0.000001 0.000000
									}
								}
							}
						}
					}
					JOINT LeftCollar
					{
						OFFSET -2.894404 0.000001 6.791374
						CHANNELS 3 Yrotation Xrotation Zrotation
						JOINT LeftShoulder
						{
							OFFSET -13.574684 -0.000001 0.000000
							CHANNELS 3 Yrotation Xrotation Zrotation
							JOINT LeftElbow
							{
								OFFSET -23.923903 -0.000002 0.000000
								CHANNELS 3 Yrotation Xrotation Zrotation
								JOINT LeftWrist
								{
									OFFSET -19.846718 0.012763 0.000000
									CHANNELS 3 Yrotation Xrotation Zrotation
									End Site
									{
										OFFSET -14.973145 -0.000001 0.000000
									}
								}
							}
						}
					}
				}
			}
		}
	}
	JOINT RightHip
	{
		OFFSET 9.469263 0.004643 0.045487
		CHANNELS 3 Yrotation Xrotation Zrotation
		JOINT RightKnee
		{
			OFFSET 0.000000 0.002661 -40.478676
			CHANNELS 3 Yrotation Xrotation Zrotation
			JOINT RightAnkle
			{
				OFFSET 0.000000 0.049106 -35.224068
				CHANNELS 3 Yrotation Xrotation Zrotation
				JOINT RightToe
				{
					OFFSET -0.000001 12.539529 -6.151390
					CHANNELS 3 Yrotation Xrotation Zrotation
					End Site
					{
						OFFSET -0.000001 5.044994 -1.291870
					}
				}
			}
		}
	}
	JOINT LeftHip
	{
		OFFSET -9.469263 0.004641 0.045487
		CHANNELS 3 Yrotation Xrotation Zrotation
		JOINT LeftKnee
		{
			OFFSET 0.000000 0.002661 -40.478676
			CHANNELS 3 Yrotation Xrotation Zrotation
			JOINT LeftAnkle
			{
				OFFSET 0.000000 0.049106 -35.224068
				CHANNELS 3 Yrotation Xrotation Zrotation
				JOINT LeftToe
				{
					OFFSET -0.000001 12.539529 -6.151390
					CHANNELS 3 Yrotation Xrotation Zrotation
					End Site
					{
						OFFSET -0.000001 5.044994 -1.291870
					}
				}
			}
		}
	}
}
MOTION
Frames: 15
Frame Time: 0.016667
-22.549671 40.248268 83.194244 -1.005717 -1.231201 -107.926490 -0.312685 -6.643019 1.835487 -0.087025 -2.908912 0.749459 -0.087025 -2.908914 0.749459 -0.061685 -2.181794 0.561559 2.523654 -21.091049 -3.063827 3.684897 -2.955068 -4.822787 9.776613 4.585754 -1.617914 46.518680 1.882333 -10.376422 9.626670 -42.097034 15.431972 -36.542294 22.530033 26.219153 -8.260199 2.155420 -3.654804 -40.341191 21.895059 4.176175 -13.415766 -48.467183 -34.053336 24.902375 4.380777 -51.426806 3.753896 4.234208 1.784807 2.509714 -9.201073 -12.505522 0.642050 1.198734 11.735410 0.047285 0.309138 -0.001787 -5.083563 -3.700798 10.539738 -3.604196 0.082919 17.566147 4.332658 3.156761 -4.683282 0.775871 0.088611 0.135610 
-22.673302 40.208084 83.194023 -1.003098 -1.053408 -107.473812 -0.358051 -6.685797 1.726020 -0.097035 -2.920167 0.691372 -0.097035 -2.920166 0.691371 -0.069454 -2.190238 0.517951 2.495384 -21.179867 -3.093017 3.627092 -3.120363 -4.884911 9.898706 4.936476 -1.463732 47.095111 2.477591 -10.749708 10.853265 -37.384135 13.009802 -35.194961 21.900208 23.775100 -8.176308 2.043934 -3.674275 -40.738322 23.331028 2.461991 -14.153752 -47.144401 -34.513690 24.942032 4.757935 -50.358834 3.595556 4.445313 1.900613 2.610960 -9.439374 -12.619256 0.563189 1.425383 11.390665 0.087706 0.207193 0.002058 -5.138341 -3.551585 10.598540 -3.593453 0.030683 17.458443 4.054826 2.968191 -5.132667 0.817926 0.086640 0.126526 
-22.779524 40.177799 83.189713 -1.015130 -0.865524 -107.040232 -0.422249 -6.749849 1.655138 -0.112482 -2.930773 0.637974 -0.112482 -2.930772 0.637971 -0.081282 -2.198200 0.477835 2.469595 -21.246340 -3.131532 3.570681 -3.244130 -4.962923 9.873987 4.783590 -1.547580 47.874111 3.676304 -10.826458 11.444435 -33.150931 11.259555 -33.730647 20.806197 21.855024 -8.035356 1.814356 -3.652868 -41.371723 24.682695 0.461713 -14.866212 -45.987479 -35.052647 25.048646 5.198852 -49.441287 3.401966 4.678677 2.023063 2.793974 -9.737799 -12.795027 0.475888 1.684211 10.959523 0.088219 0.132339 -0.007418 -5.215384 -3.417198 10.637152 -3.592767 -0.023077 17.310951 3.780792 2.789775 -5.566815 0.864823 0.070035 0.147391 
-22.887850 40.146095 83.182564 -0.998930 -0.680197 -106.587786 -0.442142 -6.772191 1.539171 -0.117685 -2.930877 0.569676 -0.117685 -2.930879 0.569676 -0.085510 -2.198269 0.426599 2.397578 -21.318929 -3.144713 3.438044 -3.380302 -5.008356 9.785057 4.539702 -1.684645 48.381368 4.852022 -10.821657 12.109411 -29.460293 9.655207 -32.492631 20.038062 20.515774 -7.974301 1.606530 -3.592014 -42.162918 25.841532 -1.673834 -15.540789 -44.961554 -35.566209 25.152144 5.708352 -48.610490 3.192820 4.972096 2.034880 3.001859 -10.116686 -13.048148 0.389590 1.974907 10.665234 0.086759 0.082436 -0.010543 -5.277899 -3.257452 10.569826 -3.591716 -0.082829 17.205282 3.509108 2.598016 -5.926845 0.899837 0.063329 0.152353 
-22.992603 40.104637 83.174332 -0.988314 -0.495659 -106.125485 -0.448596 -6.781472 1.397246 -0.119301 -2.928280 0.495022 -0.119302 -2.928281 0.495021 -0.087083 -2.196308 0.370614 2.304775 -21.392482 -3.142359 3.272347 -3.518782 -5.031490 9.805122 4.731220 -1.651973 48.615654 5.403708 -11.121571 12.367335 -26.399777 8.283160 -30.955893 19.892257 19.603404 -7.922497 1.424895 -3.530598 -43.189827 26.678306 -3.943710 -16.089211 -43.912676 -36.110968 25.225564 6.300986 -47.803872 2.992576 5.271649 1.897899 3.197966 -10.530939 -13.303882 0.259573 2.260887 10.526327 0.105487 0.063572 -0.005912 -5.336621 -3.094458 10.433286 -3.585659 -0.165343 17.194264 3.224516 2.406903 -6.330739 0.929342 0.059309 0.153919 
-23.089479 40.049450 83.163216 -0.999439 -0.293814 -105.661114 -0.481223 -6.793503 1.248269 -0.129853 -2.928316 0.418921 -0.129853 -2.928315 0.418923 -0.095360 -2.196327 0.313502 2.223132 -21.456450 -3.130859 3.129340 -3.639288 -5.034609 9.873315 4.928530 -1.530497 49.067085 5.857265 -11.504597 11.747779 -24.242141 7.350118 -29.066331 19.631055 19.082811 -7.864802 1.322114 -3.452902 -44.406765 27.118648 -6.253188 -16.543020 -42.754259 -36.681931 25.286924 6.764119 -47.086364 2.777803 5.535564 1.611493 3.369413 -10.944336 -13.559344 0.101345 2.593037 10.497265 0.145572 0.025981 -0.003206 -5.409649 -2.943756 10.290699 -3.576176 -0.272492 17.223369 2.912021 2.212882 -6.744576 0.963211 0.062138 0.156957 
-23.171041 40.005432 83.148567 -1.035188 -0.039687 -105.204256 -0.562401 -6.801549 1.095444 -0.150185 -2.927463 0.342508 -0.150185 -2.927465 0.342507 -0.110972 -2.195682 0.256105 2.156107 -21.516382 -3.112371 3.014767 -3.752021 -5.020729 9.811568 4.809439 -1.640391 49.952653 6.678185 -11.666103 10.520189 -22.906930 6.700028 -27.204780 18.445254 19.020234 -7.846917 1.117601 -3.484069 -45.734878 27.297565 -8.624167 -16.943630 -41.384352 -37.230965 25.338875 7.061905 -46.470671 2.507825 5.768408 1.180666 3.554950 -11.348782 -13.741889 -0.068074 3.080355 10.270026 0.178177 -0.102146 -0.015092 -5.537356 -2.807039 10.156817 -3.574835 -0.400213 17.262270 2.589461 2.014969 -7.219666 1.001896 0.076347 0.173520 
-23.239500 39.958893 83.129265 -1.098493 0.237143 -104.804212 -0.669312 -6.824766 0.975382 -0.177882 -2.919688 0.265165 -0.177882 -2.919687 0.265165 -0.132115 -2.189843 0.197982 2.094708 -21.580743 -3.081609 2.914024 -3.872820 -4.982955 9.729558 4.534735 -1.780647 50.484257 7.757789 -11.838486 10.027571 -22.260392 5.870268 -26.499804 17.302339 19.113779 -7.847690 0.826466 -3.527887 -47.166288 27.176208 -11.049779 -17.259004 -39.886293 -37.788025 25.372997 7.260061 -45.902822 2.174990 5.943019 0.668184 3.765046 -11.707345 -14.056639 -0.265249 3.584601 10.477479 0.225180 -0.220752 -0.026281 -5.702609 -2.691775 10.046781 -3.571132 -0.538572 17.268260 2.255663 1.859970 -7.591569 1.042034 0.053905 0.217848 
-23.291519 39.937336 83.110718 -1.124836 0.489657 -104.416947 -0.754191 -6.797964 0.823938 -0.208710 -2.902173 0.188373 -0.208710 -2.902173 0.188373 -0.155604 -2.176695 0.140258 2.035338 -21.667436 -3.033430 2.822479 -4.034966 -4.913110 9.799503 4.619548 -1.732903 50.323543 8.281656 -12.277738 10.131833 -22.368309 4.863020 -26.181082 17.240031 18.922387 -7.970861 0.716949 -3.683704 -48.397143 26.787000 -13.178491 -17.493001 -38.467540 -38.317098 25.398381 7.513980 -45.288204 1.880449 6.158456 0.086359 3.968999 -12.107353 -14.277074 -0.493095 4.153014 10.505913 0.284985 -0.329598 -0.049623 -5.845658 -2.565790 9.899952 -3.560949 -0.682226 17.239590 1.943009 1.700977 -8.002530 1.063922 0.047122 0.269448 
-23.337288 39.877537 83.095795 -1.151556 0.703181 -104.093613 -0.825215 -6.759797 0.678092 -0.240877 -2.880401 0.114165 -0.240876 -2.880402 0.114165 -0.180081 -2.160349 0.084468 1.980126 -21.771964 -2.966165 2.744274 -4.230064 -4.807570 9.873137 4.878584 -1.705581 50.185843 8.216391 -12.831108 10.187054 -23.049677 4.126773 -25.793226 17.491201 18.524177 -8.145583 0.655445 -3.947821 -49.531063 26.312523 -15.030946 -17.589796 -37.233379 -38.874346 25.414654 7.757553 -44.659714 1.600064 6.304971 -0.479797 4.153551 -12.463652 -14.112849 -0.747603 4.734982 10.357756 0.364853 -0.425159 -0.048291 -5.953751 -2.434623 9.730055 -3.541082 -0.857877 17.274860 1.634650 1.592009 -8.232277 1.063690 0.021810 0.317124 
-23.369883 39.813671 83.082413 -1.173700 0.924793 -103.812974 -0.926600 -6.718390 0.529758 -0.278857 -2.868238 0.051814 -0.278857 -2.868237 0.051814 -0.208855 -2.151201 0.037541 1.948444 -21.855975 -2.897498 2.708418 -4.386524 -4.692719 9.836565 4.707497 -1.833556 50.458538 8.211728 -13.117688 10.056698 -23.782608 3.851156 -25.128179 17.055799 18.449654 -8.335989 0.590104 -4.243084 -50.602863 25.796523 -16.668283 -17.636378 -36.224308 -39.475645 25.440932 7.932776 -44.038290 1.385775 6.435967 -0.985195 4.321202 -12.735778 -13.925798 -1.077579 5.268928 9.926567 0.433453 -0.490700 -0.051010 -6.071638 -2.290476 9.500043 -3.507164 -1.073404 17.387319 1.366331 1.511721 -8.449760 1.014972 0.010695 0.332924 
-23.395063 39.726475 83.070137 -1.215707 1.123454 -103.621961 -1.031689 -6.698994 0.419361 -0.325892 -2.865013 0.003078 -0.325892 -2.865013 0.003079 -0.244354 -2.148761 0.000779 1.934228 -21.915482 -2.827343 2.703868 -4.497131 -4.570147 9.781797 4.485941 -2.007217 50.819363 8.311039 -13.441420 9.828162 -24.470777 3.858006 -23.982280 15.836256 18.843058 -8.451401 0.446242 -4.460583 -51.726761 25.226575 -18.270478 -17.760940 -35.420241 -39.982008 25.478301 8.064293 -43.464165 1.188187 6.577171 -1.271947 4.522993 -13.077610 -14.086376 -1.349040 5.796447 9.746519 0.459610 -0.507434 -0.057855 -6.160374 -2.173931 9.297124 -3.490958 -1.301288 17.518689 1.117576 1.454998 -8.669689 0.957716 0.000139 0.354139 
-23.400631 39.637806 83.060928 -1.293874 1.299969 -103.515594 -1.131734 -6.695783 0.318552 -0.379393 -2.865931 -0.045302 -0.379393 -2.865932 -0.045304 -0.284698 -2.149420 -0.035751 1.918286 -21.967060 -2.738669 2.701106 -4.593041 -4.414557 9.780162 4.431268 -2.046326 50.893731 8.512622 -13.932958 9.734505 -25.339442 3.840672 -22.480521 14.632951 19.448192 -8.399365 0.089087 -4.432651 -53.091009 24.609132 -19.992372 -18.004596 -34.819478 -40.375369 25.498414 8.103063 -42.953048 0.992178 6.754742 -1.355166 4.804020 -13.549641 -14.507474 -1.578311 6.309089 9.757216 0.434189 -0.460253 -0.078059 -6.225040 -2.096966 9.120304 -3.495633 -1.565530 17.710892 0.843919 1.437136 -8.843004 0.926958 -0.002536 0.402119 
-23.406342 39.529896 83.057213 -1.404358 1.457441 -103.484340 -1.235016 -6.691221 0.233939 -0.442622 -2.867409 -0.092499 -0.442622 -2.867411 -0.092499 -0.332331 -2.150493 -0.071439 1.906554 -22.030775 -2.639515 2.709042 -4.711456 -4.238978 9.791051 4.404468 -2.125600 50.928278 8.690287 -14.258400 9.713218 -26.169535 3.582236 -20.858841 13.993951 20.049935 -8.285476 -0.297658 -4.283838 -54.441700 23.784578 -21.592588 -18.272757 -34.269214 -40.677755 25.401634 7.973412 -42.496921 0.780073 6.900902 -1.380301 5.115835 -14.039596 -14.795032 -1.794287 6.774580 9.680204 0.390934 -0.386796 -0.085984 -6.250369 -2.055443 8.959764 -3.517084 -1.850779 17.979991 0.535120 1.425327 -9.115010 0.917870 -0.000608 0.447024 
-23.399956 39.384872 83.059746 -1.569791 1.605113 -103.497781 -1.346605 -6.698898 0.142111 -0.511988 -2.866762 -0.146771 -0.511988 -2.866762 -0.146769 -0.384600 -2.149950 -0.112456 1.890917 -22.123389 -2.531096 2.712938 -4.883675 -4.048026 9.800764 4.373533 -2.243325 51.183303 8.770276 -14.425711 9.539894 -26.532261 3.121890 -19.303872 13.725009 20.574692 -8.211206 -0.606509 -4.142914 -55.638929 22.707486 -22.870164 -18.320084 -33.684041 -40.970494 25.136643 7.602302 -42.089408 0.584079 6.939598 -1.539544 5.376338 -14.455728 -14.815247 -2.030963 7.133779 9.699399 0.343433 -0.282253 -0.087200 -6.248286 -2.065750 8.798837 -3.554402 -2.165732 18.315828 0.162012 1.435765 -9.406562 0.945665 -0.009728 0.521329 
